<?xml version="1.0" standalone="no"?><!DOCTYPE svg PUBLIC "-//W3C//DTD SVG 1.1//EN" "http://www.w3.org/Graphics/SVG/1.1/DTD/svg11.dtd"><svg t="1670076052895" class="icon" viewBox="0 0 1025 1024" version="1.1" xmlns="http://www.w3.org/2000/svg" p-id="26651" xmlns:xlink="http://www.w3.org/1999/xlink" width="48.125" height="48"><path d="M512.016875 999.03122" p-id="26652" fill="#1296db"></path><path d="M364.282945 427.613022c0-81.5526 66.112581-147.67643 147.67018-147.67643 81.54885 0 147.67268 66.123831 147.67268 147.67643 0 81.58635-66.118831 147.68518-147.67268 147.67143C430.395525 575.285702 364.282945 509.199372 364.282945 427.613022L364.282945 427.613022z" p-id="26653" fill="#1296db"></path><path d="M512.016875 0C229.23403 0 0 229.23403 0 512.016875 0 794.77597 229.23403 1024 512.016875 1024c282.774095 0 512.006875-229.22403 512.006875-511.983125C1024.025 229.23403 794.79097 0 512.016875 0zM749.229665 759.092177c-0.0225 0.33875-0.07 0.670001-0.115 1.002501l-0.0025 0.02375c0-0.00125 0-0.00125 0-0.0025-0.958751 6.840008-6.792508 12.072515-13.901267 12.072515-7.78751 0-14.702518-6.265008-14.702518-14.052517-27.113783-89.506359-110.195135-154.707689-208.556505-154.707689-98.36762 0-181.853972 68.311333-208.974005 157.827693-1.782502 7.257509-9.556262 10.932513-14.292517 10.932513-7.777509 0-14.062517-6.265008-14.062517-14.052517 0.37625-1.518752 0.463751-3.002504 0.893751-4.551256 0.13625-0.37625 0.2-0.791251 0.34625-1.171251 22.973778-78.605096 83.892602-140.997672 161.767697-165.641452-59.901323-28.027534-101.483874-88.662608-101.483874-159.155194 0-97.071368 78.706346-175.801465 175.805215-175.801465 97.071368 0 175.802715 78.726346 175.802715 175.801465 0 70.492586-41.626301 131.12766-101.508874 159.140194 77.881345 24.64878 138.788919 87.051356 161.762697 165.640202 0.17125 0.37625 1.157501 5.356257 1.270002 5.732507C749.478415 758.833426 749.365915 758.982176 749.229665 759.092177z" p-id="26654" fill="#1296db"></path></svg>